<svg width="54" height="46" viewBox="0 0 54 46" fill="none" xmlns="http://www.w3.org/2000/svg">
<path d="M17.5865 0.454469C17.2724 0.420568 17.0343 0.453328 16.7554 0.607505C16.5115 0.742304 16.281 0.916729 16.0523 1.07544L14.8046 1.94718L10.3818 4.97556L5.67024 8.18705L4.41853 9.06863L1.72752 10.9064C1.23003 11.246 0.703449 11.569 0.23 11.9395C0.148281 12.0035 0.0675125 12.0715 0.0403633 12.1745L0.0336609 12.2033C-0.0233459 12.4352 0.00944901 12.7268 0.00883865 12.9687L0.00740051 14.5452L0.00357819 20.308C0.00490952 20.3988 -0.00661469 20.5453 0.0408058 20.6223C0.0946007 20.7096 0.172714 20.7758 0.256424 20.8346L4.59127 23.8032L6.86971 25.3959L20.8432 34.9397L31.0673 41.9304L34.3054 44.1271L35.8838 45.2059C36.0585 45.3161 36.2292 45.3795 36.4293 45.4302C36.6776 45.4582 36.9186 45.4415 37.1501 45.3397C37.4073 45.2266 37.6451 45.0169 37.8792 44.8602L39.5049 43.7796L44.5162 40.4164L50.1882 36.6248L52.2556 35.2495C52.6057 35.0185 52.9925 34.8054 53.3216 34.5477C53.5807 34.3448 53.7552 34.0712 53.8686 33.7682C53.9334 33.5954 53.9812 33.4232 53.9893 33.2383L53.9832 31.8218L53.983 28.9595L53.9896 26.9326C53.9916 26.5707 54.0126 26.1963 53.9885 25.8357C53.9749 25.632 53.9194 25.4322 53.8284 25.2484C53.7084 25.0062 53.5274 24.8383 53.3073 24.6835L50.7722 22.9617L45.0671 19.0933L27.6866 7.26199L21.4023 2.96302L19.2961 1.51615L18.476 0.951679C18.1852 0.751545 17.9275 0.564782 17.5865 0.454469Z" fill="#17161E"/>
<path d="M53.2495 25.8284C52.9812 25.9261 52.6978 26.1134 52.4964 26.3127C52.4453 26.3633 52.3508 26.4683 52.3275 26.5329C52.2894 26.6388 52.3111 26.8192 52.3108 26.9341L52.3104 27.8636C52.4421 27.8495 52.56 27.8511 52.6843 27.8996C52.7435 27.9575 52.7826 27.9991 52.7934 28.083C52.8276 28.3494 52.8008 28.653 52.8 28.9228C52.7994 29.1214 52.8256 29.3721 52.7765 29.563C52.7625 29.6172 52.7297 29.664 52.6943 29.7069C52.6174 29.8003 52.5019 29.9079 52.3746 29.9157C52.2812 29.9213 52.2016 29.8991 52.1351 29.8325C52.0909 29.7882 52.0544 29.7207 52.0424 29.6597C52.0175 29.5322 52.0337 29.3727 52.0337 29.2418L52.0383 28.3593L41.0912 35.8854L38.2426 37.8473C38.1828 37.8892 37.8131 38.1151 37.7966 38.1593C37.7812 38.2003 37.7975 38.332 37.7978 38.3838L37.801 39.0715L37.8025 42.1345C37.8017 42.6126 37.8344 43.1183 37.7953 43.5936C37.7913 43.6419 37.7777 43.6848 37.7475 43.7232C37.6822 43.8066 37.567 43.8468 37.4631 43.8533C37.3445 43.8605 37.2157 43.8086 37.134 43.7241C37.0907 43.6793 37.0569 43.628 37.0487 43.5659C37.0278 43.407 37.0421 43.229 37.0417 43.0679L37.0393 42.1259L37.0322 38.947L37.0281 38.6425L36.1274 39.2912L36.1109 42.8572V43.7746C36.1114 43.9385 36.0975 44.1196 36.1259 44.2814C36.1442 44.385 36.2011 44.4827 36.2759 44.5573C36.3726 44.6537 36.5092 44.6688 36.6412 44.6704C36.7538 44.6718 36.8412 44.6424 36.9388 44.5887C37.1138 44.4921 37.2808 44.3589 37.4451 44.2451L38.3433 43.6395L42.6595 40.7518L50.2728 35.6613L52.3159 34.315C52.547 34.1596 52.8346 34.0091 53.0329 33.8166C53.1572 33.6959 53.2253 33.5141 53.2497 33.3465C53.2894 33.073 53.2653 32.7641 53.2642 32.4873L53.2568 30.8754L53.2495 25.8284Z" fill="white"/>
<path d="M52.5535 30.7111C52.5082 30.7046 52.4596 30.7015 52.4144 30.7111C52.3058 30.7343 52.173 30.8539 52.1131 30.9414C52.0785 30.992 52.0586 31.0449 52.0512 31.1052C52.0136 31.4123 52.0405 31.7452 52.0405 32.0561C52.0404 32.4187 52.0056 32.8152 52.0643 33.1707C52.1225 33.2679 52.1831 33.2888 52.2869 33.3309C52.3535 33.3322 52.421 33.3324 52.4838 33.3081C52.6145 33.2574 52.7259 33.112 52.7763 32.9867C52.8288 32.8558 52.8323 30.9945 52.7716 30.8853C52.7166 30.7861 52.6603 30.7473 52.5535 30.7111Z" fill="#17161E"/>
<path d="M49.956 30.4394C49.8601 30.4422 49.8098 30.4562 49.7283 30.5059C49.1586 30.853 48.6169 31.2733 48.0677 31.653L44.6613 33.9977L41.4443 36.2121L40.1188 37.129C39.7968 37.3523 39.4681 37.5658 39.1675 37.8168C39.116 38.051 39.1534 38.3693 39.152 38.6113L39.1432 40.5956L39.1361 41.5732C39.1346 41.7333 39.1146 41.914 39.1417 42.0705C39.1616 42.1855 39.2174 42.1939 39.3128 42.2547L39.4712 42.2799C39.5426 42.2613 39.5897 42.2377 39.651 42.1973L43.6761 39.4799L47.7336 36.7667L49.1928 35.7958C49.496 35.5993 49.8556 35.4228 50.1135 35.1734C50.1545 34.9584 50.1282 34.6951 50.128 34.4752L50.1269 33.0962L50.1268 31.544C50.1285 31.2132 50.1536 30.8774 50.1168 30.5481C50.0608 30.4735 50.0413 30.4715 49.956 30.4394Z" fill="#17161E"/>
<path d="M41.9783 36.4949L41.5317 36.8589L41.5323 40.2699L41.9497 39.9606C42.0115 39.8838 41.9799 36.8377 41.9783 36.4949Z" fill="white"/>
<path d="M47.7026 32.5519C47.5518 32.638 47.41 32.7535 47.2693 32.8555L47.2633 36.4317L47.707 36.1364L47.7026 32.5519Z" fill="white"/>
<path d="M44.8311 34.5103L44.3738 34.8587L44.3812 38.3989L44.8252 38.0779L44.8311 34.5103Z" fill="white"/>
<path d="M0.760445 15.7644L0.762657 20.2756L35.3438 43.9225L35.3628 39.389C35.1358 39.1901 34.8096 39.0195 34.5566 38.845L32.0994 37.1828L23.6232 31.394L16.0349 26.1999L12.6323 23.8344L8.76466 21.2064L2.70554 17.066L0.760445 15.7644Z" fill="white"/>
<path d="M4.54006 21.2805C4.46139 21.2662 4.39624 21.2662 4.32034 21.2917C4.20849 21.3292 4.1481 21.4063 4.09703 21.5069C4.0521 21.5954 4.04151 21.7012 4.08013 21.7944C4.10556 21.8556 4.15132 21.898 4.20312 21.9385C4.49579 22.1675 4.82992 22.3638 5.13528 22.5801L8.65746 24.9773L10.2826 26.0875C10.5131 26.2438 10.7329 26.4344 10.9864 26.5529C11.0282 26.568 11.0592 26.5734 11.1047 26.5736C11.2065 26.574 11.3 26.4996 11.3643 26.4287C11.4567 26.3266 11.4549 26.2209 11.4506 26.0909C11.399 25.9715 11.3209 25.9091 11.2177 25.8338L8.71895 24.1428L6.01847 22.2916L5.13822 21.6772C4.95168 21.5428 4.75513 21.3669 4.54006 21.2805Z" fill="#17161E"/>
<path d="M17.3962 1.16929L17.3499 1.16071C17.0111 1.28882 16.6647 1.58647 16.3611 1.78676L12.9451 4.12624L4.12677 10.1658L0.741989 12.4863L0.755009 14.8037C0.904755 14.9817 1.25034 15.1571 1.44696 15.2919L3.03251 16.3853L10.0718 21.174L17.6137 26.3703L30.0805 34.8853L35.7045 38.709L35.874 38.5797L39.8996 35.7929L47.5737 30.5107L51.1829 28.0164C51.2769 27.9482 51.4743 27.8515 51.5381 27.7702C51.5471 27.7587 51.5365 27.5496 51.5363 27.5224C51.5344 27.2192 51.4959 26.8553 51.5763 26.5603C51.7483 25.9292 52.1909 25.5452 52.7446 25.224C51.9456 24.6138 51.0756 24.0669 50.24 23.5045L46.2719 20.818L39.2497 16.0198L32.2841 11.3034L22.6268 4.69827L19.6294 2.64524C18.9098 2.14599 18.173 1.57587 17.3962 1.16929Z" fill="white"/>
<path d="M17.4111 2.96588L12.4957 6.28608L8.06429 9.32973L5.13268 11.3482C4.66493 11.6706 4.15409 11.9771 3.7095 12.327C3.6556 12.3693 3.59621 12.4245 3.56939 12.4885C3.40065 12.891 3.86589 13.0753 4.13636 13.2582L12.7058 19.1736L19.0383 23.5578L21.0815 24.9592C21.1858 25.0343 21.3716 25.145 21.4188 25.2593C21.3576 25.2934 21.3094 25.3185 21.2619 25.3707C21.3507 25.8475 21.4893 26.3208 21.6109 26.791C21.6552 26.9624 21.6937 27.2362 21.7879 27.3817C22.2981 27.6873 22.7787 28.0516 23.2701 28.386L26.079 30.303L32.8926 34.9418L34.3566 35.9413C34.471 36.0189 34.7018 36.236 34.8375 36.2337L35.8081 36.2379L36.6281 36.2432L45.4736 30.1837L48.6154 28.0288C49.0127 27.749 49.4642 27.4964 49.8104 27.1582C49.8654 26.8836 49.8389 26.5798 49.8383 26.3005C49.8375 25.8877 49.8493 25.4711 49.82 25.0593C49.6066 24.8303 49.2975 24.658 49.0365 24.4831L47.7599 23.6249L41.0274 19.0513L25.1921 8.25111L20.027 4.72888L17.4111 2.96588Z" fill="#17161E"/>
<path d="M12.5222 7.17694L11.8416 7.64553L29.4742 19.6993C29.706 19.577 29.9366 19.3992 30.1479 19.2459L12.5222 7.17694Z" fill="white"/>
<path d="M13.8936 6.25946L13.1806 6.73756L30.8066 18.7734C31.0424 18.6656 31.2882 18.4692 31.4995 18.3194L13.8936 6.25946Z" fill="white"/>
<path d="M6.64855 11.2521L6.6132 11.2441C6.44423 11.2719 6.09997 11.5777 5.95255 11.6865L23.4456 23.7898L24.1523 23.2883L6.64855 11.2521Z" fill="white"/>
<path d="M5.32426 12.2034L5.23413 12.1846L4.54938 12.6651L22.0204 24.6703C22.0504 24.6937 22.068 24.7001 22.1035 24.712L22.7422 24.2443L5.32426 12.2034Z" fill="white"/>
<path d="M11.1587 8.133C11.0345 8.19338 10.9126 8.29052 10.7979 8.36857L10.028 8.90054L8.22878 10.1316L7.31219 10.7608L24.8281 22.873L28.7939 20.1488L11.1587 8.133Z" fill="white"/>
<path d="M17.4586 3.88716L17.3945 3.87537L14.5798 5.78832C14.7206 5.96112 15.0525 6.13397 15.2432 6.26757L17.6122 7.90147L26.4329 13.9377L30.1873 16.5027L31.8216 17.61C32.0112 17.7404 32.3557 17.9262 32.4749 18.1164C32.5292 18.203 32.5369 18.2935 32.5099 18.3906C32.4795 18.4994 32.4141 18.5757 32.3234 18.6422L29.6644 20.4458L24.9308 23.6793L23.059 24.9324C22.7443 25.1455 22.4332 25.4025 22.093 25.5724L22.0587 25.5894C22.1129 25.7904 22.3433 26.8238 22.442 26.9104C22.5953 27.0451 22.8003 27.1589 22.9703 27.2765L24.2388 28.1413L27.9498 30.6592L33.6911 34.5879L34.7433 35.3057C34.8247 35.3603 34.9598 35.4779 35.0459 35.5072C35.0891 35.522 35.2012 35.5083 35.25 35.5086L35.7594 35.512C35.9237 35.5151 36.2 35.5587 36.352 35.5233C36.4644 35.4972 36.6567 35.3243 36.7592 35.2525L37.9122 34.4525L45.1048 29.5326L49.0812 26.8074L49.0884 25.4203L17.4586 3.88716Z" fill="white"/>
<path d="M36.4561 20.4085C34.3102 20.2466 31.9733 20.8753 30.3276 22.2519C29.2252 23.1741 28.4324 24.4502 28.3291 25.8877C28.2329 27.2272 28.7164 28.444 29.6 29.4529C31.0226 31.0772 33.2264 31.9075 35.3645 32.0626L35.4005 32.066C35.9225 32.1125 36.4609 32.0854 36.9809 32.0303C38.6001 31.8585 40.2747 31.2813 41.5372 30.2488C42.6062 29.3745 43.4387 28.1821 43.5532 26.7874C43.6676 25.3944 43.1466 24.0577 42.223 23.0094C40.7745 21.3651 38.6258 20.5595 36.4561 20.4085Z" fill="#17161E"/>
<path d="M36.454 22.1472C35.6994 22.1029 35.0147 22.1791 34.2727 22.3133C34.5548 22.8267 34.7838 23.3704 35.0396 23.8973C35.1043 24.0305 35.1828 24.2795 35.2889 24.3707L35.3923 24.3526C35.7827 24.2825 36.1194 24.3381 36.5053 24.3447L37.6597 22.3489L36.454 22.1472Z" fill="white"/>
<path d="M36.5521 28.3274C36.1647 28.393 35.8038 28.3937 35.4167 28.3336L34.2389 30.5242L35.2132 30.6656C36.0068 30.7824 36.8132 30.6805 37.5908 30.5164L36.5521 28.3274Z" fill="white"/>
<path d="M38.547 22.6394L38.4466 22.6249C38.2733 22.8381 38.136 23.0968 37.9946 23.3318L37.2433 24.5983C37.6252 24.7967 37.8792 25.0076 38.1706 25.3176L39.2271 24.9375L40.9062 24.3161C40.7653 24.1577 40.6331 23.9894 40.4797 23.8421C39.9304 23.3145 39.2662 22.9023 38.547 22.6394Z" fill="white"/>
<path d="M30.5727 25.0853L30.503 25.0936C30.1893 25.9716 30.2041 26.9152 30.6162 27.759L32.3662 27.1093L33.3477 26.773C33.2838 26.517 33.2938 26.2262 33.3366 25.9676L33.3448 25.9197L30.5727 25.0853Z" fill="white"/>
<path d="M33.4997 22.5332C32.4376 22.9198 31.5199 23.4479 30.8641 24.3821L32.379 24.8254C32.5402 24.8756 33.6379 25.2554 33.6895 25.239C33.7608 25.2163 33.9628 24.9907 34.0322 24.9327C34.1898 24.8011 34.3544 24.717 34.5425 24.6353L33.4997 22.5332Z" fill="white"/>
<path d="M38.0796 27.4639C37.8595 27.7089 37.5943 27.8861 37.309 28.05C37.3047 28.1565 37.448 28.3959 37.4951 28.5002L38.3253 30.2722L38.8667 30.0492C39.1078 29.9368 39.3349 29.8001 39.5609 29.6612C40.1274 29.3003 40.5887 28.8683 40.998 28.3407L38.0796 27.4639Z" fill="white"/>
<path d="M41.3579 24.9185L38.5517 25.9863C38.5768 26.2825 38.554 26.5461 38.5025 26.8385L39.4378 27.1082L41.3909 27.713L41.4143 27.6786C41.48 27.5633 41.5206 27.392 41.5587 27.2644C41.8037 26.4434 41.642 25.7004 41.3579 24.9185Z" fill="white"/>
<path d="M33.7092 27.4286L30.9465 28.4001C31.373 28.9876 31.8501 29.4178 32.4653 29.8108L33.49 30.3155L34.7061 28.112C34.3108 27.9428 34.0026 27.7392 33.7092 27.4286Z" fill="white"/>
<path d="M36.1954 25.0273C35.6646 25.008 35.2321 25.0635 34.7626 25.3225C34.4478 25.4962 34.1596 25.7512 34.073 26.1115C34.0166 26.3459 34.0688 26.6336 34.1995 26.8349C34.5105 27.3143 35.0614 27.5447 35.6081 27.6519C36.1608 27.7366 36.7721 27.5844 37.2247 27.263C37.4993 27.068 37.7436 26.7662 37.793 26.4306C37.8314 26.1693 37.7234 25.9162 37.5601 25.7143C37.2244 25.2989 36.7194 25.0907 36.1954 25.0273Z" fill="white"/>
<path d="M36.6043 21.147C35.7188 21.0713 34.7725 21.1456 33.9025 21.3146C32.2867 21.6287 30.6827 22.5533 29.7639 23.9167C29.1396 24.8432 28.9409 26.0062 29.1711 27.0861C29.4553 28.4199 30.3876 29.3453 31.5078 30.068L31.5342 30.0505C31.1956 29.7749 30.8763 29.496 30.6058 29.1522C29.8586 28.2029 29.3857 27.0106 29.5595 25.7965C29.7482 24.4777 30.5241 23.4704 31.5876 22.6809C32.0106 22.3668 32.5052 22.1467 32.9999 21.9662C34.2776 21.5002 35.6748 21.3268 37.0265 21.5156L38.067 21.7272C39.5928 22.1462 41.1274 23.0898 41.9131 24.4721C42.4222 25.3678 42.593 26.3936 42.301 27.3882C41.8553 28.9063 40.6112 29.9453 39.25 30.6797V30.7101C39.9522 30.41 40.6078 30.0331 41.1984 29.5516C42.0934 28.8219 42.69 27.8603 42.7956 26.7134C42.9007 25.5701 42.479 24.4515 41.7271 23.5829C40.4405 22.0966 38.5603 21.3058 36.6043 21.147Z" fill="white"/>
</svg>
