<svg width="134" height="134" viewBox="0 0 134 134" fill="none" xmlns="http://www.w3.org/2000/svg">
<path d="M132.01 52.0105C140.289 87.9148 117.894 123.732 81.9896 132.011C46.0853 140.289 10.2681 117.894 1.98957 81.9897C-6.28894 46.0854 16.1062 10.2682 52.0104 1.98968C87.9147 -6.28882 123.732 16.1063 132.01 52.0105Z" fill="#E3FE0F"/>
<path d="M117.718 68.4673L126.895 70.1467L126.502 72.2944L116.786 75.2517L116.731 75.5511L117.53 75.5224L125.639 77.0065L125.447 78.0609L116.27 76.3815L116.663 74.2337L126.376 71.2894L126.431 70.99L125.632 71.0187L117.523 69.5347L117.718 68.4673Z" fill="#17161E"/>
<path d="M119.469 79.0152C120.45 79.3624 121.122 79.9091 121.485 80.6551C121.845 81.4095 121.867 82.2358 121.549 83.134C121.237 84.0156 120.722 84.6242 120.004 84.9598C119.287 85.2955 118.454 85.2956 117.506 84.9601L117.107 84.8189L118.841 79.9162C118.181 79.7199 117.586 79.7202 117.058 79.917C116.535 80.1251 116.147 80.5867 115.894 81.302C115.712 81.8176 115.683 82.2844 115.806 82.7024C115.938 83.1234 116.222 83.4718 116.657 83.7476L116.296 84.7706C116.045 84.6069 115.822 84.4159 115.628 84.1975C115.431 83.9874 115.252 83.7275 115.09 83.4176C114.925 83.116 114.834 82.7516 114.817 82.3244C114.805 81.9084 114.881 81.4676 115.046 81.0018C115.417 79.9539 116.004 79.2727 116.808 78.9582C117.617 78.6549 118.504 78.6739 119.469 79.0152ZM119.615 80.1898L118.233 84.0945C118.749 84.277 119.232 84.2607 119.682 84.0457C120.141 83.8337 120.476 83.4283 120.688 82.8294C120.9 82.2306 120.901 81.6838 120.693 81.1889C120.481 80.7023 120.122 80.3693 119.615 80.1898Z" fill="#17161E"/>
<path d="M120.276 88.237L119.745 89.122L113.55 87.2553L113.386 87.5276L118.083 91.8904L116.932 93.8078L110.866 91.7255L110.709 91.9865L115.263 96.5875L114.739 97.4612L109.958 92.6467L111.096 90.752L117.15 92.8275L117.313 92.5552L112.635 88.1878L113.779 86.2817L120.276 88.237Z" fill="#17161E"/>
<path d="M106.266 99.2488L104.831 101.072L104.14 100.454L105.701 98.5118C105.893 98.2699 106.096 98.1431 106.307 98.1313C106.52 98.132 106.741 98.2353 106.971 98.4412L110.61 101.697L111.581 100.612L112.271 101.23L111.3 102.315L112.563 103.444L112.095 104.464L110.586 103.114L109.218 104.642L108.528 104.025L109.895 102.496L106.266 99.2488Z" fill="#17161E"/>
<path d="M105.887 103.997C106.556 104.795 106.857 105.607 106.79 106.434C106.717 107.267 106.315 107.989 105.585 108.601C104.868 109.202 104.115 109.464 103.326 109.388C102.538 109.313 101.821 108.889 101.175 108.118L100.903 107.794L104.889 104.454C104.42 103.949 103.908 103.647 103.353 103.548C102.797 103.461 102.228 103.662 101.647 104.149C101.228 104.5 100.965 104.887 100.859 105.31C100.758 105.74 100.826 106.184 101.061 106.643L100.229 107.34C100.096 107.071 100.001 106.794 99.9454 106.507C99.8825 106.226 99.8602 105.911 99.8785 105.562C99.89 105.218 99.9969 104.858 100.199 104.482C100.4 104.117 100.69 103.777 101.069 103.459C101.921 102.745 102.773 102.457 103.625 102.595C104.476 102.745 105.23 103.213 105.887 103.997ZM105.416 105.083L102.241 107.743C102.592 108.162 103.017 108.394 103.514 108.437C104.016 108.488 104.511 108.309 104.998 107.901C105.485 107.493 105.764 107.023 105.836 106.491C105.902 105.965 105.761 105.495 105.416 105.083Z" fill="#17161E"/>
<path d="M99.8021 109.337C100.312 110.173 100.479 111.022 100.303 111.884C100.123 112.759 99.5927 113.465 98.7117 114.002C98.3201 114.241 97.9 114.4 97.4512 114.477C97.007 114.562 96.5301 114.517 96.0204 114.343C95.5153 114.176 95.0839 113.85 94.7262 113.365L95.6637 112.793C96.3951 113.67 97.2502 113.809 98.2291 113.212C98.8617 112.826 99.2218 112.332 99.3096 111.731C99.3973 111.129 99.2528 110.52 98.8759 109.902C98.4991 109.285 98.0209 108.874 97.4414 108.67C96.8665 108.473 96.2627 108.567 95.6302 108.953C94.6512 109.551 94.3844 110.375 94.8296 111.426L93.892 111.998C93.6247 111.459 93.5299 110.922 93.6076 110.389C93.6898 109.864 93.868 109.419 94.1422 109.055C94.4209 108.699 94.756 108.402 95.1476 108.163C96.0287 107.625 96.8967 107.472 97.7518 107.705C98.604 107.95 99.2874 108.494 99.8021 109.337Z" fill="#17161E"/>
<path d="M90.64 118.475C89.9319 118.771 89.2917 118.795 88.7193 118.547C88.1469 118.298 87.6889 117.763 87.3453 116.941L85.7937 113.229L86.7826 112.816L88.2781 116.393C88.5401 117.02 88.8534 117.415 89.218 117.578C89.5778 117.753 90.0223 117.729 90.5514 117.508C91.2025 117.236 91.6312 116.775 91.8374 116.124C92.0355 115.477 91.9661 114.751 91.6293 113.945L90.5064 111.259L91.5076 110.841L95.2589 119.814L94.2577 120.233L92.6041 116.277L92.4719 115.515L92.1911 115.632C92.299 116.256 92.2274 116.817 91.9762 117.314C91.7203 117.823 91.2749 118.21 90.64 118.475Z" fill="#17161E"/>
<path d="M82.6484 120.456C83.3329 120.284 83.8257 119.892 84.1268 119.28C84.4194 118.67 84.4594 117.941 84.2468 117.094L83.5381 114.27L84.5905 114.006L86.1916 120.385L85.1391 120.649L84.8621 119.545L84.8453 118.772L84.5501 118.846C84.5635 119.479 84.4089 120.023 84.0862 120.477C83.7572 120.942 83.2589 121.258 82.5915 121.425C81.8471 121.612 81.2105 121.54 80.6817 121.209C80.1529 120.878 79.78 120.28 79.5631 119.416L78.5838 115.514L79.6234 115.253L80.5673 119.014C80.7327 119.672 80.9834 120.11 81.3195 120.325C81.6493 120.552 82.0922 120.595 82.6484 120.456Z" fill="#17161E"/>
<path d="M77.6687 119.454C77.7502 120.421 77.4975 121.256 76.9106 121.961C76.3237 122.666 75.516 123.061 74.4875 123.148C73.4677 123.234 72.614 122.978 71.9262 122.381C71.2297 121.785 70.8406 121.003 70.7591 120.036C70.6769 119.06 70.9292 118.22 71.5161 117.515C72.0942 116.812 72.8931 116.417 73.9128 116.331C74.9413 116.244 75.8039 116.499 76.5004 117.095C77.197 117.692 77.5864 118.478 77.6687 119.454ZM76.5874 119.545C76.5266 118.824 76.2653 118.244 75.8033 117.805C75.3421 117.374 74.7378 117.191 73.9906 117.254C73.2434 117.317 72.6832 117.603 72.3101 118.112C71.9281 118.623 71.7672 119.234 71.8272 119.946C71.8872 120.658 72.1478 121.229 72.6091 121.66C73.0623 122.099 73.6625 122.288 74.4097 122.225C75.1569 122.162 75.7215 121.875 76.1034 121.365C76.4861 120.864 76.6474 120.257 76.5874 119.545Z" fill="#17161E"/>
<path d="M69.3001 116.996L69.2649 117.922L67.4136 117.851L67.1098 125.838L68.4763 125.771L68.4411 126.697L66.9022 126.771C66.6014 126.786 66.3791 126.711 66.2353 126.547C66.0915 126.382 66.0256 126.141 66.0377 125.824L66.3425 117.811L64.5045 117.741L64.5397 116.815L69.3001 116.996Z" fill="#17161E"/>
<path d="M63.148 120.393C62.9662 121.347 62.4978 122.083 61.7429 122.604C60.988 123.125 60.1036 123.288 59.0897 123.095C58.0845 122.903 57.3311 122.427 56.8294 121.667C56.3191 120.905 56.1549 120.047 56.3367 119.094C56.5201 118.132 56.9893 117.391 57.7442 116.87C58.4905 116.348 59.3662 116.183 60.3714 116.375C61.3853 116.568 62.1474 117.046 62.6577 117.808C63.168 118.569 63.3314 119.431 63.148 120.393ZM62.0821 120.19C62.2176 119.479 62.122 118.85 61.7953 118.303C61.467 117.765 60.9345 117.425 60.1979 117.285C59.4613 117.144 58.8447 117.269 58.3482 117.659C57.843 118.048 57.5234 118.593 57.3896 119.295C57.2557 119.997 57.3529 120.617 57.6813 121.156C57.9994 121.701 58.5267 122.045 59.2633 122.185C59.9998 122.326 60.6207 122.201 61.126 121.813C61.6295 121.433 61.9482 120.892 62.0821 120.19Z" fill="#17161E"/>
<path d="M46.7609 119.709L46.2142 119.509L46.5327 118.639L47.0546 118.83C47.3694 118.945 47.669 118.961 47.9533 118.877C47.7991 118.426 47.8175 117.94 48.0087 117.418C48.2423 116.78 48.6869 116.323 49.3425 116.046C49.9868 115.775 50.8587 115.638 51.9584 115.637C51.4371 115.521 50.9739 115.375 50.5688 115.199C50.1524 115.028 49.8515 114.772 49.6661 114.431C49.4724 114.088 49.4545 113.701 49.6122 113.27C49.7123 112.997 49.8444 112.777 50.0083 112.612C50.1722 112.446 50.3903 112.338 50.6625 112.288C50.9295 112.226 51.2189 112.205 51.5309 112.225C51.8429 112.246 52.2426 112.322 52.73 112.453C53.2203 112.576 53.7212 112.722 54.2326 112.891C54.744 113.059 55.3725 113.28 56.118 113.553L55.7995 114.423C53.8942 113.725 52.5957 113.32 51.904 113.208C51.2041 113.092 50.7707 113.262 50.6039 113.718C50.2307 114.737 51.6169 115.338 54.7625 115.523L54.7143 116.308C53.584 116.214 52.5018 116.142 51.4678 116.092L51.3632 116.378C52.504 116.495 53.3696 116.863 53.9598 117.484C54.5501 118.104 54.6768 118.873 54.3401 119.793C54.0397 120.613 53.5181 121.127 52.7752 121.334C52.0324 121.541 51.1929 121.473 50.2568 121.13C49.4201 120.824 48.7929 120.369 48.3753 119.765C47.9877 119.848 47.6963 119.887 47.5011 119.881C47.2976 119.873 47.0509 119.815 46.7609 119.709ZM51.7779 116.938C50.3448 116.413 49.425 116.706 49.0185 117.816C48.615 118.918 49.1298 119.731 50.5629 120.256C52.0043 120.784 52.9268 120.497 53.3303 119.395C53.7368 118.285 53.2193 117.466 51.7779 116.938Z" fill="#17161E"/>
<path d="M42.5015 119.06C42.7451 119.184 42.9094 119.367 42.9943 119.608C43.0713 119.846 43.0497 120.082 42.9295 120.318C42.8133 120.546 42.6365 120.698 42.3992 120.775C42.154 120.848 41.9095 120.823 41.6659 120.699C41.4301 120.578 41.2698 120.398 41.1849 120.156C41.1 119.915 41.1157 119.68 41.2319 119.452C41.3521 119.217 41.5348 119.062 41.78 118.989C42.0252 118.916 42.2657 118.94 42.5015 119.06ZM47.9209 113.267L47.5001 114.093L45.8496 113.251L43.6495 117.566L44.9179 118.079L44.4971 118.904L43.0813 118.331C42.5464 118.117 42.4112 117.751 42.6757 117.233L44.9419 112.788L43.2915 111.947L43.7123 111.121L47.9209 113.267Z" fill="#17161E"/>
<path d="M40.9945 113.849C40.3954 114.701 39.6876 115.2 38.8713 115.349C38.0477 115.492 37.2464 115.289 36.4672 114.741C35.7025 114.203 35.2554 113.543 35.1259 112.761C34.9964 111.979 35.221 111.177 35.7999 110.355L36.0436 110.009L40.2964 113.002C40.6636 112.419 40.8237 111.847 40.7767 111.285C40.7174 110.725 40.3776 110.227 39.7572 109.791C39.3099 109.476 38.8683 109.321 38.4325 109.328C37.9916 109.341 37.5796 109.52 37.1963 109.865L36.309 109.241C36.5343 109.043 36.7783 108.881 37.0409 108.753C37.2964 108.62 37.5951 108.517 37.9372 108.445C38.272 108.368 38.6474 108.378 39.0635 108.477C39.4672 108.578 39.8711 108.77 40.2751 109.055C41.1841 109.695 41.6815 110.444 41.7675 111.303C41.8412 112.164 41.5835 113.012 40.9945 113.849ZM39.8242 113.673L36.4371 111.289C36.1223 111.736 36.0076 112.206 36.0931 112.697C36.1734 113.196 36.4733 113.628 36.9928 113.994C37.5122 114.36 38.0383 114.509 38.5711 114.442C39.0967 114.369 39.5144 114.113 39.8242 113.673Z" fill="#17161E"/>
<path d="M31.3878 104.414C31.7555 104.009 32.2052 103.815 32.7369 103.833C33.2627 103.858 33.8652 104.179 34.5445 104.795C36.0271 106.142 36.1961 107.445 35.0515 108.705L34.2482 107.976C34.9954 107.153 34.8922 106.309 33.9387 105.443C33.5533 105.093 33.225 104.89 32.9538 104.835C32.6826 104.779 32.4373 104.872 32.2178 105.114C32.1348 105.205 32.0734 105.292 32.0337 105.375C31.9881 105.465 31.9712 105.569 31.9832 105.687C31.9886 105.799 31.9964 105.896 32.0065 105.976C32.0166 106.057 32.0627 106.17 32.1447 106.316C32.2142 106.463 32.2694 106.573 32.3104 106.645C32.3449 106.713 32.423 106.843 32.5448 107.037C32.66 107.225 32.7348 107.353 32.7693 107.42C32.9671 107.766 33.118 108.046 33.222 108.26C33.3194 108.467 33.4059 108.707 33.4815 108.978C33.551 109.256 33.5539 109.508 33.4899 109.736C33.426 109.964 33.2991 110.183 33.1093 110.392C32.7535 110.784 32.315 110.951 31.794 110.895C31.267 110.846 30.7259 110.569 30.1708 110.065C29.4719 109.43 29.1113 108.817 29.089 108.225C29.0602 107.627 29.2563 107.096 29.6774 106.632L30.4807 107.361C29.8877 108.014 29.983 108.697 30.7668 109.409C31.4134 109.996 31.9175 110.09 32.2793 109.692C32.4809 109.47 32.5538 109.232 32.4978 108.978C32.4419 108.725 32.2607 108.334 31.9542 107.806C31.9132 107.733 31.8413 107.602 31.7385 107.413C31.6233 107.225 31.5449 107.088 31.5033 107.003C31.4558 106.924 31.3904 106.799 31.3072 106.628C31.2181 106.464 31.162 106.335 31.1388 106.243C31.1031 106.151 31.063 106.031 31.0184 105.883C30.9672 105.73 30.9485 105.599 30.9621 105.493C30.9691 105.38 30.9851 105.257 31.0099 105.125C31.0288 104.999 31.073 104.878 31.1423 104.763C31.2052 104.641 31.287 104.525 31.3878 104.414Z" fill="#17161E"/>
<path d="M22.4786 97.7148L19.4589 92.1719L20.2375 91.7477L23.2572 97.2906L22.4786 97.7148Z" fill="#17161E"/>
<path d="M18.04 90.0886L15.9674 84.1264L16.8049 83.8353L18.8774 89.7975L18.04 90.0886Z" fill="#17161E"/>
<path d="M14.8915 81.7765L13.8074 75.5582L14.6809 75.4059L15.7649 81.6242L14.8915 81.7765Z" fill="#17161E"/>
<path d="M16.3197 64.4864L7.16222 62.7045L7.57927 60.5613L17.3277 57.7128L17.3858 57.4141L16.5866 57.4338L8.49425 55.8591L8.69898 54.807L17.8565 56.5889L17.4394 58.7322L7.69351 61.5676L7.63538 61.8664L8.43461 61.8466L16.527 63.4213L16.3197 64.4864Z" fill="#17161E"/>
<path d="M14.7258 53.6851C13.7496 53.3235 13.0855 52.7671 12.7335 52.0158C12.3845 51.2562 12.3755 50.4297 12.7064 49.5363C13.0312 48.6594 13.5548 48.0584 14.2773 47.7333C14.9998 47.4082 15.8326 47.4203 16.7757 47.7696L17.1728 47.9167L15.3665 52.7935C16.024 52.9994 16.6183 53.0078 17.1493 52.8188C17.6751 52.6184 18.0697 52.1625 18.3332 51.451C18.5232 50.9381 18.5595 50.4718 18.4422 50.052C18.3166 49.6292 18.0379 49.2767 17.6062 48.9945L17.9831 47.9769C18.2316 48.1442 18.4513 48.3385 18.6421 48.5597C18.8361 48.7727 19.0116 49.0352 19.1688 49.3475C19.3291 49.6514 19.4147 50.0171 19.4257 50.4445C19.4315 50.8606 19.3487 51.3003 19.1771 51.7636C18.791 52.8059 18.1938 53.4785 17.3855 53.7812C16.572 54.0726 15.6855 54.0405 14.7258 53.6851ZM14.5971 52.5085L16.0357 48.6245C15.5228 48.4345 15.0396 48.4437 14.5862 48.652C14.1244 48.8573 13.7832 49.2578 13.5626 49.8534C13.342 50.449 13.3323 50.9958 13.5336 51.4937C13.738 51.9833 14.0925 52.3216 14.5971 52.5085Z" fill="#17161E"/>
<path d="M13.958 44.631L14.4988 43.7519L20.6733 45.686L20.8397 45.4156L16.1907 41.0018L17.3625 39.097L23.4052 41.2453L23.5647 40.9861L19.0613 36.3357L19.5952 35.4678L24.3232 40.3341L23.1652 42.2163L17.1338 40.075L16.9674 40.3455L21.5982 44.7635L20.4333 46.657L13.958 44.631Z" fill="#17161E"/>
<path d="M28.0214 33.8173L29.477 32.0103L30.1605 32.6355L28.579 34.5605C28.3837 34.8002 28.18 34.9248 27.9681 34.9343C27.7557 34.9312 27.5356 34.8255 27.3077 34.6171L23.7047 31.3214L22.7223 32.3955L22.0388 31.7703L23.0212 30.6962L21.7714 29.553L22.2507 28.5388L23.7447 29.9053L25.129 28.3919L25.8125 29.0171L24.4282 30.5305L28.0214 33.8173Z" fill="#17161E"/>
<path d="M28.4834 29.0156C27.8238 28.2102 27.5319 27.3945 27.6078 26.5683C27.6905 25.7365 28.1003 25.0187 28.8374 24.4149C29.5608 23.8224 30.3164 23.5684 31.1041 23.653C31.8918 23.7376 32.6043 24.1688 33.2416 24.9469L33.51 25.2744L29.4869 28.5699C29.9502 29.0799 30.4587 29.3875 31.0125 29.4927C31.5675 29.5855 32.1384 29.3915 32.7253 28.9107C33.1484 28.5641 33.4154 28.18 33.5263 27.7585C33.6316 27.3302 33.5693 26.8851 33.3393 26.4235L34.1788 25.7359C34.3086 26.0058 34.4 26.2844 34.453 26.5718C34.5127 26.8536 34.5315 27.1689 34.5094 27.5177C34.4941 27.861 34.3832 28.2198 34.1767 28.5942C33.9714 28.9562 33.6777 29.2938 33.2955 29.6068C32.4356 30.3112 31.5804 30.5898 30.73 30.4425C29.8808 30.2829 29.1319 29.8072 28.4834 29.0156ZM28.967 27.9352L32.1711 25.3106C31.8245 24.8875 31.4029 24.6512 30.9063 24.6018C30.4041 24.5456 29.9074 24.7188 29.416 25.1213C28.9246 25.5238 28.64 25.9907 28.5621 26.5221C28.491 27.0479 28.626 27.5189 28.967 27.9352Z" fill="#17161E"/>
<path d="M34.4261 23.842C33.9255 23.0004 33.7683 22.1495 33.9546 21.2893C34.144 20.4171 34.6822 19.7171 35.5693 19.1894C35.9636 18.9548 36.3855 18.8013 36.8351 18.7289C37.2802 18.6489 37.7566 18.6991 38.2643 18.8795C38.7675 19.0524 39.1952 19.3831 39.5474 19.8716L38.6034 20.4331C37.882 19.5483 37.0285 19.3991 36.0429 19.9855C35.406 20.3643 35.0403 20.8539 34.9458 21.4542C34.8512 22.0545 34.9889 22.6655 35.3587 23.2872C35.7286 23.9089 36.2021 24.3252 36.7792 24.5362C37.3519 24.7396 37.9566 24.6518 38.5935 24.273C39.5791 23.6866 39.8553 22.8654 39.422 21.8092L40.366 21.2477C40.6272 21.7903 40.716 22.3277 40.6322 22.86C40.544 23.3846 40.3608 23.8272 40.0826 24.1878C39.7998 24.5408 39.4613 24.8345 39.0671 25.0691C38.18 25.5968 37.3103 25.7395 36.4579 25.4972C35.6086 25.2429 34.9313 24.6911 34.4261 23.842Z" fill="#17161E"/>
<path d="M43.7045 14.7461C44.4159 14.4583 45.0564 14.4418 45.6259 14.6968C46.1954 14.9517 46.6472 15.4922 46.9814 16.3181L48.4902 20.0473L47.4966 20.4493L46.0424 16.8551C45.7876 16.2254 45.4788 15.8269 45.1161 15.6596C44.7583 15.4808 44.3136 15.4989 43.782 15.714C43.1278 15.9787 42.6938 16.435 42.4801 17.083C42.2746 17.7276 42.3357 18.4547 42.6632 19.2644L43.7552 21.9631L42.7493 22.3701L39.1013 13.3539L40.1072 12.9469L41.7153 16.9214L41.8387 17.6851L42.1208 17.571C42.0201 16.9456 42.0981 16.3858 42.355 15.8917C42.6168 15.3861 43.0666 15.0042 43.7045 14.7461Z" fill="#17161E"/>
<path d="M51.7479 12.8005C51.0614 12.9643 50.5641 13.3506 50.2559 13.9593C49.9563 14.566 49.9079 15.294 50.1107 16.1435L50.7867 18.9752L49.7312 19.2272L48.2041 12.8301L49.2596 12.5782L49.5238 13.6851L49.5316 14.4587L49.8277 14.3881C49.8216 13.7546 49.9825 13.2128 50.3104 12.7627C50.6448 12.3019 51.1467 11.9917 51.816 11.8319C52.5625 11.6537 53.1982 11.7332 53.7232 12.0704C54.2481 12.4077 54.614 13.0097 54.8209 13.8763L55.755 17.7892L54.7124 18.0381L53.8121 14.2668C53.6544 13.6061 53.4087 13.1659 53.0751 12.9462C52.7481 12.7159 52.3057 12.6673 51.7479 12.8005Z" fill="#17161E"/>
<path d="M56.7559 13.812C56.6855 12.8441 56.9478 12.0113 57.5427 11.3135C58.1377 10.6156 58.9499 10.2293 59.9793 10.1544C61 10.0802 61.8507 10.3456 62.5316 10.9507C63.2213 11.5551 63.6013 12.3412 63.6717 13.3091C63.7427 14.2857 63.4807 15.123 62.8858 15.8208C62.2996 16.5179 61.4962 16.9036 60.4755 16.9779C59.4461 17.0527 58.5865 16.788 57.8969 16.1836C57.2072 15.5792 56.8269 14.7886 56.7559 13.812ZM57.8381 13.7333C57.8906 14.4548 58.1453 15.0377 58.6021 15.4821C59.0584 15.9178 59.6605 16.1084 60.4084 16.054C61.1562 15.9996 61.7197 15.7198 62.0987 15.2146C62.4865 14.7088 62.6545 14.0995 62.6026 13.3868C62.5508 12.6741 62.2968 12.0999 61.8405 11.6643C61.3924 11.2193 60.7944 11.0239 60.0465 11.0783C59.2986 11.1327 58.7308 11.4128 58.343 11.9187C57.9546 12.4157 57.7863 13.0206 57.8381 13.7333Z" fill="#17161E"/>
<path d="M65.1746 16.3429L65.2203 15.4177L67.0706 15.5092L67.4653 7.5262L66.0981 7.57785L66.1439 6.65267L67.6835 6.5963C67.9844 6.58468 68.2058 6.66187 68.3478 6.82788C68.4897 6.99389 68.5529 7.23549 68.5372 7.55269L68.1412 15.5621L69.9784 15.6529L69.9326 16.5781L65.1746 16.3429Z" fill="#17161E"/>
<path d="M71.2178 12.9661C71.4102 12.0149 71.8868 11.2833 72.6474 10.7711C73.4081 10.259 74.2943 10.1053 75.306 10.3099C76.309 10.5129 77.057 10.9973 77.5502 11.7631C78.0519 12.5307 78.2065 13.39 78.0141 14.3412C77.8199 15.301 77.3425 16.0369 76.5818 16.5491C75.8298 17.063 74.9522 17.2184 73.9492 17.0155C72.9376 16.8108 72.1808 16.3247 71.6791 15.5571C71.1773 14.7895 71.0236 13.9258 71.2178 12.9661ZM72.2813 13.1812C72.1378 13.8903 72.2264 14.5202 72.547 15.0712C72.8693 15.6134 73.3979 15.9589 74.1329 16.1076C74.8679 16.2563 75.4858 16.1383 75.9867 15.7536C76.4962 15.3707 76.8218 14.829 76.9635 14.1286C77.1052 13.4282 77.0149 12.8069 76.6926 12.2646C76.3807 11.7155 75.8572 11.3666 75.1223 11.2179C74.3873 11.0691 73.765 11.1863 73.2555 11.5692C72.7478 11.9435 72.423 12.4809 72.2813 13.1812Z" fill="#17161E"/>
<path d="M87.743 13.8404L88.2875 14.0466L87.9594 14.9129L87.4397 14.716C87.1262 14.5973 86.8268 14.5782 86.5416 14.6589C86.6908 15.1116 86.667 15.5979 86.4702 16.1176C86.2296 16.7529 85.78 17.2052 85.1214 17.4746C84.4741 17.7389 83.6007 17.8656 82.5011 17.8548C83.0211 17.9762 83.4827 18.1275 83.8858 18.3084C84.3003 18.4843 84.5984 18.7434 84.78 19.0858C84.9699 19.4313 84.9836 19.8185 84.8211 20.2475C84.718 20.5198 84.5836 20.7377 84.4178 20.9013C84.2521 21.065 84.0328 21.1706 83.7601 21.2182C83.4925 21.2773 83.2028 21.2949 82.891 21.2712C82.5793 21.2474 82.1805 21.1671 81.6946 21.0303C81.2056 20.9017 80.7063 20.7503 80.1968 20.5762C79.6873 20.4021 79.0613 20.1744 78.3188 19.8932L78.6469 19.027C80.5444 19.7456 81.8384 20.165 82.5287 20.2849C83.2274 20.408 83.6626 20.2427 83.8345 19.7889C84.2188 18.7742 82.8393 18.1574 79.6959 17.9385L79.7527 17.1534C80.8819 17.2604 81.9632 17.3445 82.9966 17.4057L83.1044 17.121C81.9649 16.9913 81.1035 16.6132 80.5201 15.9866C79.9367 15.36 79.8184 14.5888 80.1652 13.6731C80.4746 12.8563 81.0018 12.3485 81.7469 12.1496C82.492 11.9507 83.3307 12.0278 84.263 12.3808C85.0962 12.6964 85.7184 13.1585 86.1294 13.767C86.5179 13.6877 86.8097 13.652 87.0048 13.6599C87.2082 13.6708 87.4543 13.731 87.743 13.8404ZM82.6958 16.5559C84.1231 17.0965 85.0461 16.814 85.4648 15.7085C85.8804 14.6113 85.3745 13.7924 83.9473 13.2518C82.5118 12.7081 81.5862 12.9849 81.1706 14.0821C80.7519 15.1877 81.2603 16.0123 82.6958 16.5559Z" fill="#17161E"/>
<path d="M92.0311 14.5373C91.7889 14.4105 91.6266 14.2259 91.5444 13.9836C91.4699 13.7455 91.4941 13.5092 91.6169 13.2747C91.7356 13.0481 91.914 12.8975 92.1522 12.8231C92.3981 12.7528 92.6423 12.781 92.8845 12.9079C93.119 13.0307 93.2773 13.2132 93.3596 13.4555C93.4418 13.6977 93.4236 13.9322 93.3049 14.1588C93.1821 14.3933 92.9977 14.5457 92.7518 14.616C92.5058 14.6864 92.2656 14.6601 92.0311 14.5373ZM86.5488 20.2703L86.9786 19.4498L88.6197 20.3093L90.8668 16.0189L89.6041 15.492L90.0339 14.6714L91.4434 15.2602C91.9759 15.4794 92.1071 15.8469 91.837 16.3627L89.5224 20.782L91.1635 21.6416L90.7338 22.4622L86.5488 20.2703Z" fill="#17161E"/>
<path d="M93.492 19.7553C94.1004 18.9106 94.8135 18.4186 95.6314 18.2793C96.4565 18.1452 97.2556 18.3565 98.0287 18.9134C98.7875 19.4599 99.2274 20.1247 99.3484 20.9076C99.4694 21.6906 99.236 22.4901 98.6482 23.3062L98.4007 23.6498L94.1808 20.6103C93.8073 21.1893 93.6409 21.7598 93.6818 22.322C93.7349 22.8821 94.0693 23.3839 94.685 23.8273C95.1288 24.147 95.5686 24.3062 96.0045 24.3048C96.4455 24.2963 96.8595 24.1216 97.2464 23.7806L98.1269 24.4147C97.8995 24.6097 97.6538 24.7698 97.3897 24.8949C97.1328 25.0251 96.833 25.1244 96.4902 25.1928C96.1545 25.2664 95.7792 25.2515 95.3643 25.1484C94.9617 25.0432 94.5599 24.8462 94.159 24.5575C93.2571 23.9078 92.7678 23.1532 92.6912 22.2935C92.6269 21.4317 92.8939 20.5857 93.492 19.7553ZM94.6603 19.9446L98.0212 22.3653C98.3409 21.9215 98.4606 21.4533 98.3806 20.9607C98.3056 20.461 98.0104 20.0255 97.495 19.6543C96.9796 19.283 96.4552 19.1281 95.9216 19.1896C95.3953 19.2562 94.9748 19.5079 94.6603 19.9446Z" fill="#17161E"/>
<path d="M103.136 29.4156C102.762 29.8151 102.31 30.0019 101.778 29.976C101.253 29.9437 100.655 29.6142 99.985 28.9876C98.5223 27.6198 98.3723 26.3141 99.5352 25.0705L100.328 25.8116C99.5686 26.6235 99.6594 27.4693 100.6 28.349C100.98 28.7045 101.306 28.9121 101.576 28.9717C101.846 29.0313 102.093 28.9418 102.316 28.7034C102.4 28.6132 102.463 28.5268 102.504 28.4443C102.551 28.3554 102.569 28.2518 102.559 28.1335C102.555 28.0213 102.549 27.9248 102.54 27.8439C102.531 27.7631 102.487 27.6491 102.407 27.502C102.339 27.3545 102.286 27.2439 102.246 27.1703C102.212 27.1028 102.136 26.9712 102.017 26.7754C101.905 26.5857 101.832 26.4571 101.798 26.3896C101.606 26.0402 101.459 25.7581 101.358 25.543C101.264 25.3339 101.181 25.0933 101.109 24.8211C101.044 24.5424 101.044 24.2896 101.112 24.0626C101.179 23.8357 101.309 23.6191 101.502 23.4129C101.863 23.0263 102.304 22.8648 102.824 22.9285C103.351 22.9857 103.888 23.2705 104.435 23.7826C105.125 24.4273 105.476 25.0459 105.49 25.6384C105.51 26.2369 105.306 26.765 104.878 27.2225L104.086 26.4813C104.688 25.837 104.603 25.1533 103.83 24.4302C103.192 23.8337 102.689 23.732 102.322 24.125C102.117 24.3441 102.04 24.5807 102.093 24.8349C102.145 25.089 102.32 25.4826 102.619 26.0156C102.659 26.0892 102.729 26.221 102.829 26.4112C102.941 26.6009 103.018 26.7387 103.058 26.8248C103.105 26.9044 103.168 27.0302 103.249 27.2022C103.335 27.3679 103.39 27.4971 103.412 27.59C103.446 27.6825 103.484 27.8029 103.527 27.9513C103.576 28.1057 103.592 28.2362 103.577 28.3428C103.569 28.4554 103.551 28.5777 103.524 28.7097C103.503 28.8352 103.457 28.9554 103.386 29.0701C103.322 29.1909 103.238 29.306 103.136 29.4156Z" fill="#17161E"/>
<path d="M110.722 36.2709L113.685 41.8442L112.902 42.2604L109.939 36.6871L110.722 36.2709Z" fill="#17161E"/>
<path d="M115.07 43.8872L117.093 49.8664L116.253 50.1505L114.23 44.1713L115.07 43.8872Z" fill="#17161E"/>
<path d="M118.119 52.0992L119.156 58.3255L118.281 58.4712L117.244 52.2449L118.119 52.0992Z" fill="#17161E"/>
<path d="M54.4537 49.922C57.1436 48.1586 61.3952 48.5042 62.548 51.8471L68.9447 79.5108C69.0875 80.0875 69.2505 80.6915 69.3269 81.2802C69.822 85.0954 66.6627 88.4156 62.8258 87.7403C61.4929 87.5058 62.1207 87.3572 60.8074 87.7404C59.9368 87.9945 58.9581 88.2776 58.0542 88.312C54.291 88.455 50.6215 86.0872 49.8619 82.2998C49.289 79.4445 50.5592 80.8812 47.5662 80.0374C42.7356 78.6755 41.3303 72.9677 43.8542 69.0923C44.3473 68.3351 44.5312 68.6467 44.2614 67.8402C43.7222 66.2282 44.2556 64.2708 45.3224 62.9882L45.8306 62.4271C46.0608 62.1776 46.0137 62.0776 45.9694 61.7517L45.9093 61.1158C45.6897 58.0913 47.571 55.1535 50.3446 53.9385C50.9815 53.6595 51.563 53.754 51.8025 53.1678L52.0453 52.6251C52.5987 51.5246 53.422 50.5975 54.4537 49.922ZM59.731 59.5293C58.3898 60.4937 58.7541 64.1664 56.3153 65.2557C54.671 65.9902 54.3033 64.9452 53.1543 64.215C52.5693 63.8431 51.8901 64.4044 51.819 65.0355C51.7015 66.0788 54.1668 67.3135 55.0995 67.3623C58.3676 67.5335 59.4485 64.8435 60.3884 62.2845C60.5454 61.8568 60.7083 61.3604 60.9528 60.9769C60.9172 60.8762 61.2902 60.3475 61.1745 59.9966C60.9567 59.3364 60.2861 59.3342 59.731 59.5293ZM53.6668 73.4902C53.0939 73.7529 52.8269 74.2306 52.6114 74.7997C51.5545 77.5912 52.2519 80.5496 55.1105 81.8743C55.7501 82.1706 56.4706 82.4393 57.1785 82.4967C58.0226 82.3704 58.107 81.2432 57.444 80.8345C57.1818 80.6729 56.8641 80.6301 56.5742 80.54C54.5523 79.9113 53.4885 77.8519 54.1474 75.8443C54.3163 75.3296 54.7662 74.7463 54.7489 74.203C54.5228 73.7634 54.1929 73.3928 53.6668 73.4902ZM59.2202 72.2105C56.8567 73.2008 61.4104 77.652 64.2594 76.9854C65.1451 76.6594 65.1401 75.6712 64.3078 75.3173C63.9593 75.1691 63.5268 75.1603 63.155 75.0803C60.6393 74.5378 60.6203 72.0042 59.2433 72.2077L59.2202 72.2105Z" fill="#17161E"/>
<path fill-rule="evenodd" clip-rule="evenodd" d="M68.2436 46.3597C70.4873 45.7367 72.824 46.3297 74.4924 47.9213C74.8501 48.2625 75.1627 48.1979 75.5853 48.1106C75.7565 48.0752 75.9457 48.0361 76.1632 48.0187C79.2573 47.7714 82.6098 49.7912 83.5542 52.7943L83.6935 53.2871C83.7557 53.5211 83.87 53.5547 84.0465 53.6067C84.1014 53.6228 84.1623 53.6407 84.2295 53.667C86.4866 54.5493 87.4543 56.066 87.9517 58.3109C88.1059 58.4317 88.2796 58.5291 88.454 58.6269C88.5777 58.6963 88.7018 58.7658 88.8194 58.8441C92.9726 61.6075 93.8671 67.223 89.8562 70.4802C89.5763 70.7075 89.2779 70.908 88.9793 71.1087C88.8595 71.1891 88.7397 71.2697 88.621 71.352C89.6579 74.1205 89.6083 77.2329 87.7437 79.6665C86.0424 81.6184 84.6606 82.2906 82.2467 82.8243C82.1835 82.8383 82.085 82.8568 81.9669 82.8789C81.5174 82.9632 80.7851 83.1004 80.6472 83.2443C77.3909 86.6367 71.9859 84.8288 70.8906 80.5331L64.4585 52.656C63.8274 49.747 65.0639 46.9335 68.2436 46.3597ZM69.6922 57.2067C68.3215 57.9297 69.4574 58.8287 70.2401 59.4482C70.386 59.5637 70.5197 59.6694 70.6225 59.7625C70.87 59.9866 71.1148 60.2235 71.3612 60.4621C71.9264 61.0091 72.5004 61.5646 73.1361 61.9938C74.4714 62.8954 76.425 62.9128 77.7982 62.0836C78.6067 61.5953 79.1504 60.8243 79.5694 59.9992C79.7467 59.5943 79.9767 59.0054 79.7788 58.5711C79.5461 58.0604 78.9536 57.9124 78.4912 58.2076C78.1771 58.408 78.0525 58.7389 77.9151 59.1037C77.732 59.59 77.5262 60.1367 76.8186 60.5153L76.7642 60.5452C76.4139 60.7309 75.8664 60.8448 75.4676 60.832L75.4104 60.8306C74.4098 60.7974 73.665 60.1477 72.976 59.4925L71.6163 58.1379C71.5839 58.1056 71.5514 58.0729 71.5187 58.04C71.0138 57.5317 70.4711 56.9854 69.6922 57.2067ZM76.1711 68.3433C78.2434 68.0373 77.0838 71.309 76.6277 72.1928C76.072 73.2697 75.0124 74.42 73.8296 74.7921C73.1468 75.0517 72.6895 74.5894 72.7331 73.9402C72.7635 73.4881 73.1092 73.1919 73.5451 72.8184C74.2246 72.2361 75.1234 71.4659 75.3882 69.6246C75.3927 69.5937 75.397 69.5633 75.4012 69.5335C75.4837 68.9488 75.5358 68.579 76.1711 68.3433ZM83.16 67.446C82.7078 67.0516 82.2819 66.7819 81.6707 66.9979C80.5525 67.7459 81.3595 68.4299 82.0522 69.0171C82.0727 69.0344 82.0931 69.0517 82.1133 69.0689C83.7316 70.4445 84.0167 72.9121 82.509 74.4853C82.4036 74.5953 82.2881 74.6915 82.1751 74.7856C81.8597 75.0481 81.5637 75.2947 81.5596 75.7804C81.5534 76.5477 82.3017 76.8615 82.9525 76.5556C83.395 76.3296 83.7093 75.969 84.0054 75.5788C86.04 72.8989 85.7765 69.7274 83.16 67.446Z" fill="#17161E"/>
</svg>
