<svg width="21" height="18" viewBox="0 0 21 18" fill="none" xmlns="http://www.w3.org/2000/svg">
<path d="M19.6576 0.637067L0.976327 7.58224C-0.284369 8.02321 -0.284369 8.79489 0.74711 9.01537L5.44607 10.4485L7.27981 15.7401C7.50903 16.2913 7.39442 16.5118 7.96746 16.5118C8.4259 16.5118 8.65512 16.2913 8.88433 16.0708C8.99894 15.9605 10.0304 14.9684 11.1765 13.866L15.9901 17.2834C16.9069 17.7244 17.48 17.5039 17.7092 16.5118L20.9183 2.0702C21.2621 0.857548 20.4598 0.196103 19.6576 0.637067ZM17.2508 3.94429L8.31129 11.7714L7.96746 15.4093L6.13372 10.1178L16.6777 3.72381C17.1362 3.39309 17.5946 3.61357 17.2508 3.94429Z" fill="#E3FE0F"/>
</svg>
